<svg version="1.1" id="Layer_1" xmlns="http://www.w3.org/2000/svg" xmlns:xlink="http://www.w3.org/1999/xlink" x="0px" y="0px"
	 width="100%" viewBox="0 0 311 94" enable-background="new 0 0 311 94" xml:space="preserve">
<path fill="black" opacity="1.000000" stroke="none" 
	d="
M198.000000,95.000000 
	C132.000015,95.000000 66.500038,95.000000 1.000044,95.000000 
	C1.000029,63.666695 1.000029,32.333389 1.000015,1.000065 
	C104.666603,1.000043 208.333206,1.000043 311.999878,1.000022 
	C311.999908,32.333263 311.999908,63.666531 311.999939,94.999893 
	C274.166656,95.000000 236.333328,95.000000 198.000000,95.000000 
M247.373856,8.440480 
	C243.236374,8.440480 239.098892,8.440480 234.961395,8.440480 
	C234.870468,8.908095 234.779556,9.375711 234.688629,9.843327 
	C236.349060,10.277072 238.009491,10.710817 239.988358,11.227742 
	C239.988358,24.236557 239.435287,37.400482 240.124771,50.499001 
	C241.039032,67.867447 227.619598,81.286827 213.176315,82.475388 
	C205.302551,83.123322 202.594604,81.433052 202.608170,73.673073 
	C202.642792,53.860786 202.717789,34.048573 202.775116,14.236327 
	C202.780746,12.291052 202.775879,10.345746 202.775879,8.251675 
	C194.243439,8.251675 186.341537,8.251675 178.013504,8.251675 
	C178.013504,22.284435 177.948914,36.063988 178.058685,49.842148 
	C178.086319,53.310482 178.373291,56.834282 179.053497,60.229950 
	C182.031754,75.097847 197.722824,86.414215 213.109512,84.976105 
	C229.220734,83.470276 242.037079,69.994537 242.157349,54.249245 
	C242.255249,41.429989 242.158859,28.609306 242.171753,15.789279 
	C242.173355,14.196830 242.317139,12.604524 242.367065,11.583622 
	C244.514893,10.615301 246.052017,9.922306 247.373856,8.440480 
M48.559071,77.967857 
	C52.526928,84.917938 52.599216,84.949501 61.163338,83.417473 
	C61.163338,58.699810 61.163338,33.967388 61.163338,9.296534 
	C58.281841,9.296534 55.707893,9.296534 52.706593,9.296534 
	C52.706593,29.572184 52.706593,49.522129 52.706593,69.858154 
	C42.057747,51.235458 31.695295,33.119160 21.338821,14.999441 
	C17.315712,7.960595 16.888922,7.777851 8.471004,9.627807 
	C8.471004,34.354984 8.471004,59.064621 8.471004,83.761856 
	C11.432077,83.761856 14.032967,83.761856 16.503025,83.761856 
	C16.503025,62.911449 16.503025,42.298653 16.503025,21.696199 
	C27.047838,40.260090 37.586147,58.812531 48.559071,77.967857 
M116.151573,53.423107 
	C116.130768,52.090767 116.134422,50.757526 116.085274,49.426235 
	C115.694534,38.841492 109.914291,30.433220 101.346344,27.968666 
	C91.052010,25.007519 80.588615,28.636217 74.838791,37.795845 
	C67.731247,49.118362 67.299095,61.118839 73.769188,72.746857 
	C81.329391,86.334015 98.979568,88.977684 113.948502,79.199219 
	C112.922203,77.389992 111.894638,75.578545 110.887863,73.803757 
	C93.059120,82.453583 78.277634,74.999222 79.100861,57.986362 
	C90.064713,57.986362 101.045364,57.908993 112.023529,58.040211 
	C114.803688,58.073444 116.655006,57.721333 116.151573,53.423107 
M124.576897,83.945236 
	C130.500656,85.224586 133.962265,82.714165 136.470840,77.299652 
	C139.118057,71.585899 142.669769,66.291206 146.113434,60.315258 
	C150.102768,66.776894 154.034882,72.198112 156.942490,78.122200 
	C159.844604,84.035042 164.032578,85.056618 170.243454,83.435562 
	C165.795029,76.578529 161.791550,69.715736 157.087036,63.372902 
	C153.275833,58.234493 152.218582,53.931301 156.724991,48.543022 
	C159.991394,44.637398 162.218109,39.857918 164.871964,35.446167 
	C166.176971,33.276726 167.399246,31.057526 168.620895,28.927238 
	C161.712524,26.743469 158.266541,29.545588 155.811813,35.269363 
	C153.634171,40.347080 150.506409,45.017319 147.516190,50.372211 
	C144.027878,44.535549 140.928848,39.251720 137.732742,34.027283 
	C133.698166,27.432264 133.545883,27.405020 125.007690,29.069643 
	C129.472397,36.154221 133.633331,43.279018 138.344742,50.019032 
	C140.809219,53.544628 140.735992,55.982929 138.339417,59.597115 
	C133.151581,67.420692 128.645538,75.696373 124.576897,83.945236 
M267.334198,76.507210 
	C264.757080,75.009880 262.179962,73.512558 259.316132,71.848648 
	C257.907959,73.721291 256.477600,75.623459 255.010880,77.573967 
	C262.014160,82.993294 269.504181,85.531319 278.009705,85.020378 
	C287.149261,84.471344 293.844849,79.216858 295.261597,71.352638 
	C296.708160,63.322784 293.230865,57.980675 283.857727,53.980484 
	C279.897675,52.290459 275.809601,50.884083 271.918304,49.054115 
	C268.477081,47.435806 265.529144,45.137474 266.622467,40.629547 
	C267.722046,36.095604 271.058746,33.707748 275.411743,34.163368 
	C280.208160,34.665398 284.888214,36.279392 290.269867,37.564415 
	C290.857819,36.784912 292.121674,35.109310 293.524658,33.249290 
	C287.240601,28.153635 280.412781,26.092489 272.871460,27.136602 
	C263.157562,28.481510 257.660950,34.603611 257.830566,43.226238 
	C257.966370,50.131775 262.662903,53.443562 268.087494,56.020020 
	C272.560150,58.144337 277.266083,59.781986 281.714783,61.950836 
	C285.423187,63.758766 287.920471,66.708572 286.745209,71.174438 
	C285.589752,75.564964 282.253815,77.803467 277.895142,77.896347 
	C274.625916,77.966019 271.339325,77.223412 267.334198,76.507210 
z"/>
<path fill="white" opacity="1.000000" stroke="none" 
	d="
M247.481506,8.834896 
	C246.052017,9.922306 244.514893,10.615301 242.367065,11.583622 
	C242.317139,12.604524 242.173355,14.196830 242.171753,15.789279 
	C242.158859,28.609306 242.255249,41.429989 242.157349,54.249245 
	C242.037079,69.994537 229.220734,83.470276 213.109512,84.976105 
	C197.722824,86.414215 182.031754,75.097847 179.053497,60.229950 
	C178.373291,56.834282 178.086319,53.310482 178.058685,49.842148 
	C177.948914,36.063988 178.013504,22.284435 178.013504,8.251675 
	C186.341537,8.251675 194.243439,8.251675 202.775879,8.251675 
	C202.775879,10.345746 202.780746,12.291052 202.775116,14.236327 
	C202.717789,34.048573 202.642792,53.860786 202.608170,73.673073 
	C202.594604,81.433052 205.302551,83.123322 213.176315,82.475388 
	C227.619598,81.286827 241.039032,67.867447 240.124771,50.499001 
	C239.435287,37.400482 239.988358,24.236557 239.988358,11.227742 
	C238.009491,10.710817 236.349060,10.277072 234.688629,9.843327 
	C234.779556,9.375711 234.870468,8.908095 234.961395,8.440480 
	C239.098892,8.440480 243.236374,8.440480 247.481506,8.834896 
z"/>
<path fill="white" opacity="1.000000" stroke="none" 
	d="
M48.341763,77.666412 
	C37.586147,58.812531 27.047838,40.260090 16.503025,21.696199 
	C16.503025,42.298653 16.503025,62.911449 16.503025,83.761856 
	C14.032967,83.761856 11.432077,83.761856 8.471004,83.761856 
	C8.471004,59.064621 8.471004,34.354984 8.471004,9.627807 
	C16.888922,7.777851 17.315712,7.960595 21.338821,14.999441 
	C31.695295,33.119160 42.057747,51.235458 52.706593,69.858154 
	C52.706593,49.522129 52.706593,29.572184 52.706593,9.296534 
	C55.707893,9.296534 58.281841,9.296534 61.163338,9.296534 
	C61.163338,33.967388 61.163338,58.699810 61.163338,83.417473 
	C52.599216,84.949501 52.526928,84.917938 48.341763,77.666412 
z"/>
<path fill="white" opacity="1.000000" stroke="none" 
	d="
M116.149872,53.896660 
	C116.655006,57.721333 114.803688,58.073444 112.023529,58.040211 
	C101.045364,57.908993 90.064713,57.986362 79.100861,57.986362 
	C78.277634,74.999222 93.059120,82.453583 110.887863,73.803757 
	C111.894638,75.578545 112.922203,77.389992 113.948502,79.199219 
	C98.979568,88.977684 81.329391,86.334015 73.769188,72.746857 
	C67.299095,61.118839 67.731247,49.118362 74.838791,37.795845 
	C80.588615,28.636217 91.052010,25.007519 101.346344,27.968666 
	C109.914291,30.433220 115.694534,38.841492 116.085274,49.426235 
	C116.134422,50.757526 116.130768,52.090767 116.149872,53.896660 
M91.290237,34.413979 
	C82.810944,37.110767 79.336571,43.396961 78.500664,51.792076 
	C88.569633,51.792076 98.318680,51.792076 108.062714,51.792076 
	C108.159843,39.138485 103.017136,33.559116 91.290237,34.413979 
z"/>
<path fill="white" opacity="1.000000" stroke="none" 
	d="
M124.218781,83.866188 
	C128.645538,75.696373 133.151581,67.420692 138.339417,59.597115 
	C140.735992,55.982929 140.809219,53.544628 138.344742,50.019032 
	C133.633331,43.279018 129.472397,36.154221 125.007690,29.069643 
	C133.545883,27.405020 133.698166,27.432264 137.732742,34.027283 
	C140.928848,39.251720 144.027878,44.535549 147.516190,50.372211 
	C150.506409,45.017319 153.634171,40.347080 155.811813,35.269363 
	C158.266541,29.545588 161.712524,26.743469 168.620895,28.927238 
	C167.399246,31.057526 166.176971,33.276726 164.871964,35.446167 
	C162.218109,39.857918 159.991394,44.637398 156.724991,48.543022 
	C152.218582,53.931301 153.275833,58.234493 157.087036,63.372902 
	C161.791550,69.715736 165.795029,76.578529 170.243454,83.435562 
	C164.032578,85.056618 159.844604,84.035042 156.942490,78.122200 
	C154.034882,72.198112 150.102768,66.776894 146.113434,60.315258 
	C142.669769,66.291206 139.118057,71.585899 136.470840,77.299652 
	C133.962265,82.714165 130.500656,85.224586 124.218781,83.866188 
z"/>
<path fill="white" opacity="1.000000" stroke="none" 
	d="
M267.697327,76.674828 
	C271.339325,77.223412 274.625916,77.966019 277.895142,77.896347 
	C282.253815,77.803467 285.589752,75.564964 286.745209,71.174438 
	C287.920471,66.708572 285.423187,63.758766 281.714783,61.950836 
	C277.266083,59.781986 272.560150,58.144337 268.087494,56.020020 
	C262.662903,53.443562 257.966370,50.131775 257.830566,43.226238 
	C257.660950,34.603611 263.157562,28.481510 272.871460,27.136602 
	C280.412781,26.092489 287.240601,28.153635 293.524658,33.249290 
	C292.121674,35.109310 290.857819,36.784912 290.269867,37.564415 
	C284.888214,36.279392 280.208160,34.665398 275.411743,34.163368 
	C271.058746,33.707748 267.722046,36.095604 266.622467,40.629547 
	C265.529144,45.137474 268.477081,47.435806 271.918304,49.054115 
	C275.809601,50.884083 279.897675,52.290459 283.857727,53.980484 
	C293.230865,57.980675 296.708160,63.322784 295.261597,71.352638 
	C293.844849,79.216858 287.149261,84.471344 278.009705,85.020378 
	C269.504181,85.531319 262.014160,82.993294 255.010880,77.573967 
	C256.477600,75.623459 257.907959,73.721291 259.316132,71.848648 
	C262.179962,73.512558 264.757080,75.009880 267.697327,76.674828 
z"/>
<path fill="black" opacity="1.000000" stroke="none" 
	d="
M91.688278,34.322479 
	C103.017136,33.559116 108.159843,39.138485 108.062714,51.792076 
	C98.318680,51.792076 88.569633,51.792076 78.500664,51.792076 
	C79.336571,43.396961 82.810944,37.110767 91.688278,34.322479 
z"/>
</svg>